<svg width="15" height="15" viewBox="0 0 15 15" fill="none" xmlns="http://www.w3.org/2000/svg">
<g clip-path="url(#clip0_28_55)">
<path d="M14.583 -0.5C15.0895 -0.5 15.5 -0.0894612 15.5 0.416992V9.58496C15.4999 10.0913 15.0895 10.502 14.583 10.502C14.0767 10.5018 13.6671 10.0912 13.667 9.58496V2.62988L1.06445 15.2334C0.885705 15.4121 0.650824 15.5019 0.416992 15.502C0.183133 15.502 -0.0525747 15.4123 -0.231445 15.2334C-0.589336 14.8753 -0.589221 14.2955 -0.231445 13.9375L12.3701 1.33301H5.41699C4.9422 1.33301 4.55192 0.972964 4.50488 0.510742L4.5 0.416992L4.50488 0.323242C4.55169 -0.139223 4.94204 -0.5 5.41699 -0.5H14.583Z" fill="black" stroke="black"/>
</g>
<defs>
<clipPath id="clip0_28_55">
<rect width="15" height="15.0024" fill="white"/>
</clipPath>
</defs>
</svg>
