<svg width="13" height="13" viewBox="0 0 13 13" fill="none" xmlns="http://www.w3.org/2000/svg">
<path d="M6.15231 2.98047C7.87497 2.98047 9.29684 4.40234 9.29684 6.125C9.29684 7.875 7.87497 9.26953 6.15231 9.26953C4.40231 9.26953 3.00778 7.875 3.00778 6.125C3.00778 4.40234 4.40231 2.98047 6.15231 2.98047ZM6.15231 8.17578C7.2734 8.17578 8.17575 7.27344 8.17575 6.125C8.17575 5.00391 7.2734 4.10156 6.15231 4.10156C5.00387 4.10156 4.10153 5.00391 4.10153 6.125C4.10153 7.27344 5.03122 8.17578 6.15231 8.17578ZM10.1445 2.87109C10.1445 3.28125 9.81637 3.60938 9.40622 3.60938C8.99606 3.60938 8.66793 3.28125 8.66793 2.87109C8.66793 2.46094 8.99606 2.13281 9.40622 2.13281C9.81637 2.13281 10.1445 2.46094 10.1445 2.87109ZM12.2226 3.60938C12.2773 4.62109 12.2773 7.65625 12.2226 8.66797C12.1679 9.65234 11.9492 10.5 11.2382 11.2383C10.5273 11.9492 9.65231 12.168 8.66793 12.2227C7.65622 12.2773 4.62106 12.2773 3.60934 12.2227C2.62497 12.168 1.77731 11.9492 1.03903 11.2383C0.328091 10.5 0.109341 9.65234 0.0546536 8.66797C-3.38554e-05 7.65625 -3.38554e-05 4.62109 0.0546536 3.60938C0.109341 2.625 0.328091 1.75 1.03903 1.03906C1.77731 0.328125 2.62497 0.109375 3.60934 0.0546875C4.62106 0 7.65622 0 8.66793 0.0546875C9.65231 0.109375 10.5273 0.328125 11.2382 1.03906C11.9492 1.75 12.1679 2.625 12.2226 3.60938ZM10.9101 9.73438C11.2382 8.94141 11.1562 7.02734 11.1562 6.125C11.1562 5.25 11.2382 3.33594 10.9101 2.51562C10.6914 1.99609 10.2812 1.55859 9.76168 1.36719C8.94137 1.03906 7.02731 1.12109 6.15231 1.12109C5.24997 1.12109 3.3359 1.03906 2.54293 1.36719C1.99606 1.58594 1.5859 1.99609 1.36715 2.51562C1.03903 3.33594 1.12106 5.25 1.12106 6.125C1.12106 7.02734 1.03903 8.94141 1.36715 9.73438C1.5859 10.2812 1.99606 10.6914 2.54293 10.9102C3.3359 11.2383 5.24997 11.1562 6.15231 11.1562C7.02731 11.1562 8.94137 11.2383 9.76168 10.9102C10.2812 10.6914 10.7187 10.2812 10.9101 9.73438Z" fill="#BEBDBD"/>
</svg>
