<svg width="13" height="13" viewBox="0 0 13 13" fill="none" xmlns="http://www.w3.org/2000/svg">
<path d="M2.7344 12.2227H0.191431V4.04688H2.7344V12.2227ZM1.44924 2.95312C0.656274 2.95312 2.43187e-05 2.26953 2.43187e-05 1.44922C2.43187e-05 0.65625 0.656274 0 1.44924 0C2.26956 0 2.92581 0.65625 2.92581 1.44922C2.92581 2.26953 2.26956 2.95312 1.44924 2.95312ZM12.2227 12.2227H9.70706V8.25781C9.70706 7.30078 9.67971 6.09766 8.36721 6.09766C7.05471 6.09766 6.86331 7.10938 6.86331 8.17578V12.2227H4.32034V4.04688H6.75393V5.16797H6.78127C7.13674 4.53906 7.95706 3.85547 9.18752 3.85547C11.7578 3.85547 12.25 5.55078 12.25 7.73828V12.2227H12.2227Z" fill="#BEBDBD"/>
</svg>
