<svg width="40" height="40" viewBox="0 0 40 40" fill="none" xmlns="http://www.w3.org/2000/svg">
<rect x="0.5" y="0.5" width="39" height="39" rx="19.5" stroke="#252638"/>
<path d="M16.6094 26H14.0664V17.8242H16.6094V26ZM15.3242 16.7305C14.5312 16.7305 13.875 16.0469 13.875 15.2266C13.875 14.4336 14.5312 13.7773 15.3242 13.7773C16.1445 13.7773 16.8008 14.4336 16.8008 15.2266C16.8008 16.0469 16.1445 16.7305 15.3242 16.7305ZM26.0977 26H23.582V22.0352C23.582 21.0781 23.5547 19.875 22.2422 19.875C20.9297 19.875 20.7383 20.8867 20.7383 21.9531V26H18.1953V17.8242H20.6289V18.9453H20.6562C21.0117 18.3164 21.832 17.6328 23.0625 17.6328C25.6328 17.6328 26.125 19.3281 26.125 21.5156V26H26.0977Z" fill="#252638"/>
</svg>
