<svg width="11" height="14" viewBox="0 0 11 14" fill="none" xmlns="http://www.w3.org/2000/svg">
<g clip-path="url(#clip0_489_1335)">
<path d="M4.75278 0.150378C5.05356 -0.049231 5.44731 -0.049231 5.74809 0.150378L6.23481 0.4703C6.39888 0.576941 6.59028 0.628894 6.78442 0.617957L7.36684 0.58241C7.72778 0.560535 8.06684 0.75741 8.22817 1.08007L8.49067 1.60233C8.57817 1.77733 8.72036 1.91678 8.89263 2.00428L9.42036 2.26952C9.74302 2.43085 9.93989 2.76991 9.91802 3.13085L9.88247 3.71327C9.87153 3.90741 9.92348 4.10155 10.0301 4.26288L10.3528 4.7496C10.5524 5.05038 10.5524 5.44413 10.3528 5.74491L10.0301 6.23436C9.92348 6.39843 9.87153 6.58983 9.88247 6.78397L9.91802 7.36639C9.93989 7.72733 9.74302 8.06639 9.42036 8.22772L8.89809 8.49022C8.72309 8.57772 8.58364 8.71991 8.49614 8.89218L8.23091 9.41991C8.06958 9.74257 7.73052 9.93944 7.36958 9.91757L6.78716 9.88202C6.59302 9.87108 6.39888 9.92303 6.23755 10.0297L5.75083 10.3523C5.45005 10.5519 5.0563 10.5519 4.75552 10.3523L4.26606 10.0297C4.102 9.92303 3.91059 9.87108 3.71645 9.88202L3.13403 9.91757C2.77309 9.93944 2.43403 9.74257 2.2727 9.41991L2.0102 8.89764C1.9227 8.72264 1.78052 8.58319 1.60825 8.49569L1.08052 8.23046C0.75786 8.06913 0.560985 7.73007 0.58286 7.36913L0.618407 6.78671C0.629344 6.59257 0.577391 6.39843 0.47075 6.2371L0.150828 5.74764C-0.048781 5.44686 -0.048781 5.05311 0.150828 4.75233L0.47075 4.26561C0.577391 4.10155 0.629344 3.91014 0.618407 3.716L0.58286 3.13358C0.560985 2.77264 0.75786 2.43358 1.08052 2.27225L1.60278 2.00975C1.77778 1.91952 1.91997 1.77733 2.00747 1.60233L2.26997 1.08007C2.4313 0.75741 2.77036 0.560535 3.1313 0.58241L3.71372 0.617957C3.90786 0.628894 4.102 0.576941 4.26333 0.4703L4.75278 0.150378ZM7.43794 5.24999C7.43794 4.66983 7.20747 4.11343 6.79723 3.70319C6.387 3.29296 5.8306 3.06249 5.25044 3.06249C4.67028 3.06249 4.11388 3.29296 3.70364 3.70319C3.29341 4.11343 3.06294 4.66983 3.06294 5.24999C3.06294 5.83015 3.29341 6.38655 3.70364 6.79678C4.11388 7.20702 4.67028 7.43749 5.25044 7.43749C5.8306 7.43749 6.387 7.20702 6.79723 6.79678C7.20747 6.38655 7.43794 5.83015 7.43794 5.24999ZM0.0359846 12.0805L1.2145 9.27772C1.21997 9.28046 1.2227 9.28319 1.22544 9.28866L1.48794 9.81093C1.80786 10.4453 2.47231 10.8308 3.18325 10.7898L3.76567 10.7543C3.77114 10.7543 3.77934 10.7543 3.78481 10.7598L4.27153 11.0824C4.41098 11.1726 4.55864 11.2437 4.71177 11.293L3.68364 13.7348C3.62075 13.8851 3.4813 13.9863 3.31997 14C3.15864 14.0137 3.00278 13.9398 2.91528 13.8031L2.03481 12.4551L0.500828 12.682C0.344969 12.7039 0.18911 12.641 0.0906721 12.518C-0.00776535 12.3949 -0.026906 12.2254 0.0332503 12.0805H0.0359846ZM6.81723 13.732L5.78911 11.293C5.94223 11.2437 6.08989 11.1754 6.22934 11.0824L6.71606 10.7598C6.72153 10.757 6.727 10.7543 6.7352 10.7543L7.31763 10.7898C8.02856 10.8308 8.69302 10.4453 9.01294 9.81093L9.27544 9.28866C9.27817 9.28319 9.28091 9.28046 9.28638 9.27772L10.4676 12.0805C10.5278 12.2254 10.5059 12.3922 10.4102 12.518C10.3145 12.6437 10.1559 12.7066 10 12.682L8.46606 12.4551L7.58559 13.8004C7.49809 13.9371 7.34224 14.0109 7.18091 13.9973C7.01958 13.9836 6.88013 13.8797 6.81723 13.732Z" fill="black"/>
</g>
<defs>
<clipPath id="clip0_489_1335">
<path d="M0 0H10.5V14H0V0Z" fill="white"/>
</clipPath>
</defs>
</svg>
