<svg width="40" height="40" viewBox="0 0 40 40" fill="none" xmlns="http://www.w3.org/2000/svg">
<rect x="0.5" y="0.5" width="39" height="39" rx="19.5" stroke="#252638"/>
<path d="M25.5508 17.9062C25.5508 18.043 25.5508 18.1523 25.5508 18.2891C25.5508 22.0898 22.6797 26.4375 17.4023 26.4375C15.7617 26.4375 14.2578 25.9727 13 25.1523C13.2188 25.1797 13.4375 25.207 13.6836 25.207C15.0234 25.207 16.2539 24.7422 17.2383 23.9766C15.9805 23.9492 14.9141 23.1289 14.5586 21.9805C14.75 22.0078 14.9141 22.0352 15.1055 22.0352C15.3516 22.0352 15.625 21.9805 15.8438 21.9258C14.5312 21.6523 13.5469 20.5039 13.5469 19.1094V19.082C13.9297 19.3008 14.3945 19.4102 14.8594 19.4375C14.0664 18.918 13.5742 18.043 13.5742 17.0586C13.5742 16.5117 13.7109 16.0195 13.957 15.6094C15.3789 17.332 17.5117 18.4805 19.8906 18.6172C19.8359 18.3984 19.8086 18.1797 19.8086 17.9609C19.8086 16.375 21.0938 15.0898 22.6797 15.0898C23.5 15.0898 24.2383 15.418 24.7852 15.9922C25.4141 15.8555 26.043 15.6094 26.5898 15.2812C26.3711 15.9648 25.9336 16.5117 25.332 16.8672C25.9062 16.8125 26.4805 16.6484 26.9727 16.4297C26.5898 17.0039 26.0977 17.4961 25.5508 17.9062Z" fill="#252638"/>
</svg>
