<svg width="40" height="40" viewBox="0 0 40 40" fill="none" xmlns="http://www.w3.org/2000/svg">
<rect x="0.5" y="0.5" width="39" height="39" rx="19.5" stroke="#252638"/>
<path d="M25.9 16.05C24.85 15 23.45 14.4 21.95 14.4C18.95 14.4 16.5 16.85 16.5 19.85C16.5 20.8 16.75 21.75 17.2 22.55L16.4 25.5L19.45 24.75C20.2 25.15 21.05 25.4 21.95 25.4C24.95 25.4 27.4 22.95 27.4 19.95C27.4 18.45 26.85 17.05 25.9 16.05ZM21.95 24.3C21.15 24.3 20.35 24.1 19.65 23.7L19.5 23.6L17.85 24.05L18.3 22.45L18.2 22.3C17.75 21.55 17.5 20.7 17.5 19.85C17.5 17.4 19.5 15.4 21.95 15.4C23.15 15.4 24.3 15.85 25.15 16.7C26 17.55 26.45 18.7 26.45 19.95C26.45 22.4 24.4 24.3 21.95 24.3ZM24.35 20.9C24.25 20.8 23.7 20.55 23.6 20.5C23.5 20.45 23.4 20.45 23.3 20.6C23.2 20.75 22.95 21 22.85 21.1C22.75 21.2 22.65 21.25 22.5 21.15C22.35 21.05 21.95 20.9 21.5 20.5C21.15 20.2 20.9 19.8 20.8 19.65C20.7 19.5 20.8 19.4 20.9 19.3C21 19.2 21.1 19.05 21.2 18.95C21.3 18.85 21.35 18.75 21.4 18.65C21.45 18.55 21.4 18.45 21.35 18.35C21.3 18.25 20.9 17.7 20.8 17.45C20.7 17.2 20.6 17.25 20.5 17.25H20.25C20.15 17.25 20 17.3 19.9 17.4C19.8 17.5 19.5 17.8 19.5 18.35C19.5 18.9 19.9 19.45 20 19.55C20.1 19.65 20.9 20.9 22.15 21.4C22.45 21.5 22.7 21.6 22.9 21.65C23.2 21.75 23.5 21.7 23.7 21.65C23.95 21.6 24.4 21.4 24.5 21.15C24.65 20.9 24.65 20.7 24.6 20.65C24.55 20.6 24.45 21 24.35 20.9Z" fill="#252638"/>
</svg>
