<svg width="14" height="14" viewBox="0 0 14 14" fill="none" xmlns="http://www.w3.org/2000/svg">
<path d="M11.9 2.05C10.6 0.75 8.85 0.05 7 0.05C3.2 0.05 0.1 3.15 0.1 6.95C0.1 8.15 0.4 9.35 1 10.35L0 14L3.7 13.05C4.65 13.6 5.8 13.9 7 13.9C10.8 13.9 13.9 10.8 13.9 7C13.9 5.15 13.25 3.4 11.9 2.05ZM7 12.7C5.95 12.7 4.9 12.4 4 11.85L3.8 11.7L1.65 12.25L2.2 10.15L2.05 9.9C1.4 8.95 1.1 7.95 1.1 6.95C1.1 3.7 3.75 1.05 7 1.05C8.6 1.05 10.1 1.65 11.25 2.75C12.4 3.85 13 5.4 13 7C13 10.25 10.25 12.7 7 12.7ZM10.2 8.4C10.05 8.3 9.3 7.95 9.15 7.9C9 7.85 8.9 7.8 8.8 8C8.7 8.2 8.45 8.5 8.35 8.6C8.25 8.7 8.15 8.75 8 8.65C7.85 8.55 7.35 8.4 6.75 7.85C6.3 7.4 6 6.85 5.9 6.7C5.8 6.55 5.9 6.45 6 6.35C6.1 6.25 6.2 6.1 6.3 6C6.4 5.9 6.45 5.8 6.5 5.7C6.55 5.6 6.5 5.5 6.45 5.4C6.4 5.3 6 4.55 5.85 4.2C5.7 3.85 5.55 3.9 5.45 3.9H5.15C5.05 3.9 4.9 3.95 4.75 4.1C4.6 4.25 4.2 4.6 4.2 5.35C4.2 6.1 4.75 6.8 4.85 6.9C4.95 7 6 8.7 7.6 9.35C8 9.5 8.3 9.6 8.55 9.65C8.95 9.8 9.3 9.75 9.6 9.7C9.9 9.65 10.5 9.35 10.65 9C10.8 8.65 10.8 8.35 10.75 8.3C10.7 8.25 10.35 8.5 10.2 8.4Z" fill="#BEBDBD"/>
</svg>
