<svg width="14" height="12" viewBox="0 0 14 12" fill="none" xmlns="http://www.w3.org/2000/svg">
<path d="M12.5508 2.81641C12.5508 2.95312 12.5508 3.0625 12.5508 3.19922C12.5508 7 9.67972 11.3477 4.40238 11.3477C2.76175 11.3477 1.25784 10.8828 3.14713e-05 10.0625C0.218781 10.0898 0.437531 10.1172 0.683625 10.1172C2.02347 10.1172 3.25394 9.65234 4.23831 8.88672C2.9805 8.85938 1.91409 8.03906 1.55863 6.89062C1.75003 6.91797 1.91409 6.94531 2.1055 6.94531C2.35159 6.94531 2.62503 6.89062 2.84378 6.83594C1.53128 6.5625 0.546906 5.41406 0.546906 4.01953V3.99219C0.929719 4.21094 1.39456 4.32031 1.85941 4.34766C1.06644 3.82812 0.57425 2.95312 0.57425 1.96875C0.57425 1.42188 0.710969 0.929688 0.957063 0.519531C2.37894 2.24219 4.51175 3.39062 6.89066 3.52734C6.83597 3.30859 6.80863 3.08984 6.80863 2.87109C6.80863 1.28516 8.09378 0 9.67972 0C10.5 0 11.2383 0.328125 11.7852 0.902344C12.4141 0.765625 13.043 0.519531 13.5899 0.191406C13.3711 0.875 12.9336 1.42188 12.3321 1.77734C12.9063 1.72266 13.4805 1.55859 13.9727 1.33984C13.5899 1.91406 13.0977 2.40625 12.5508 2.81641Z" fill="#BEBDBD"/>
</svg>
