<svg width="40" height="40" viewBox="0 0 40 40" fill="none" xmlns="http://www.w3.org/2000/svg">
<rect x="0.5" y="0.5" width="39" height="39" rx="19.5" stroke="#252638"/>
<path d="M27.1367 17.168C27.4648 18.3164 27.4648 20.7773 27.4648 20.7773C27.4648 20.7773 27.4648 23.2109 27.1367 24.3867C26.9727 25.043 26.4531 25.5352 25.8242 25.6992C24.6484 26 20 26 20 26C20 26 15.3242 26 14.1484 25.6992C13.5195 25.5352 13 25.043 12.8359 24.3867C12.5078 23.2109 12.5078 20.7773 12.5078 20.7773C12.5078 20.7773 12.5078 18.3164 12.8359 17.168C13 16.5117 13.5195 15.9922 14.1484 15.8281C15.3242 15.5 20 15.5 20 15.5C20 15.5 24.6484 15.5 25.8242 15.8281C26.4531 15.9922 26.9727 16.5117 27.1367 17.168ZM18.4688 22.9922L22.3516 20.7773L18.4688 18.5625V22.9922Z" fill="#252638"/>
</svg>
